<svg width="441" height="138" viewBox="0 0 441 138" fill="none" xmlns="http://www.w3.org/2000/svg">
<mask id="path-1-outside-1_718_771" maskUnits="userSpaceOnUse" x="-1.18895e-05" y="-3.49691e-07" width="445" height="138" fill="black">
<rect fill="white" x="-1.18895e-05" y="-3.49691e-07" width="445" height="138"/>
<path d="M416.194 85.9466L398.311 128.181L398.311 90.3046C398.311 87.9974 400.554 87.2925 403.182 86.972L403.182 86.6516L386.261 86.6516L386.261 86.972C388.889 87.2925 391.132 87.9974 391.132 90.3046L391.132 127.861C391.132 130.168 388.889 130.873 386.261 131.193L386.261 131.514L398.311 131.514L413.374 95.9445L431.193 131.514L441 131.514C438.244 129.463 437.026 127.54 435.808 125.105L435.808 96.7135C435.808 87.9974 438.052 87.2925 440.68 86.972L440.68 86.6516L429.655 86.6516L429.655 86.972C432.283 87.2925 434.526 89.2792 434.526 97.9953L434.526 122.541L416.194 85.9466Z"/>
<path d="M368.233 86.203C358.298 86.203 351.503 92.74 351.503 102.161C351.503 111.71 358.298 118.119 368.233 118.119C378.104 118.119 384.962 111.582 384.962 102.161C384.962 92.6759 378.104 86.203 368.233 86.203ZM378.424 106.519C378.424 113.056 375.668 117.03 370.732 117.03C362.848 117.03 358.041 106.583 358.041 97.803C358.041 91.266 360.797 87.2925 365.733 87.2925C373.617 87.2925 378.424 97.803 378.424 106.519Z"/>
<path d="M323.072 128.886L323.072 117.735C324.546 117.991 326.149 118.119 327.751 118.119C341.147 118.119 347.685 110.172 347.685 100.943C347.685 91.7146 341.276 86.203 332.238 86.203C329.225 86.203 326.661 86.8438 324.61 87.9334L324.674 87.8693L314.034 85.8825L314.034 86.0748C315.957 87.3566 316.534 88.4461 316.534 91.9069L316.534 133.436L316.213 136L328.392 130.296L328.392 129.912C324.418 131.129 323.072 131.45 323.072 128.886ZM340.891 104.468C340.891 111.967 337.302 116.902 330.828 116.902C327.431 116.902 324.995 115.492 323.072 113.377L323.072 92.74C323.072 91.7146 323.136 90.9455 323.2 90.3046C324.482 88.8947 326.02 88.0615 328.392 88.0615C335.507 88.0615 340.891 95.2395 340.891 104.468Z"/>
<path d="M293.997 86.203C287.33 86.203 282.139 89.2151 280.216 92.8041L280.536 93.0605C282.523 90.3047 287.587 89.1511 290.856 89.1511C298.548 89.1511 303.611 95.624 303.675 104.468L285.792 104.468C282.523 104.468 280.793 106.711 280.793 109.403C280.793 113.313 284.574 118.119 292.587 118.119C301.945 118.119 310.534 111.839 310.534 101.52C310.534 92.0351 303.291 86.203 293.997 86.203ZM303.675 105.558C303.419 112.736 299.765 117.03 294.83 117.03C289.446 117.03 286.754 112.031 286.754 108.698C286.754 106.968 287.395 105.686 288.741 105.686L303.675 105.558Z"/>
<path d="M276.16 86.6516L266.802 86.6516C268.725 87.9334 269.302 89.1511 269.302 92.6119L269.302 105.686C268.661 110.172 266.738 114.21 263.597 114.21C261.418 114.21 260.007 112.031 261.674 107.865L261.418 107.865L255.649 117.286C256.867 117.863 257.892 118.055 259.046 118.055C263.405 118.055 266.994 115.363 268.468 111.262L269.302 111.262L269.302 113.313L268.981 118.055L279.749 117.094L279.749 116.837C278.403 116.709 276.737 116.261 275.839 115.684L275.839 91.0737L276.16 86.6516Z"/>
<path d="M251.779 86.6516L242.357 86.6516C244.28 87.9334 244.857 89.1511 244.857 92.6119L244.857 110.749C241.844 112.8 238.703 115.299 234.665 115.299C231.396 115.299 228.127 113.633 228.127 106.327L228.127 91.0737L228.512 86.6516L219.09 86.6516C221.013 87.9334 221.589 89.1511 221.589 92.6119L221.589 106.455C221.589 116.132 226.717 118.119 230.819 118.119C236.588 118.119 241.524 114.402 244.857 112.159L244.857 113.313L244.536 118.055L255.305 117.094L255.305 116.837C253.959 116.709 252.292 116.261 251.395 115.684L251.395 91.0737L251.779 86.6516Z"/>
<path d="M205.907 86.972L205.907 86.6516L188.985 86.6516L188.985 86.972C191.613 87.2925 193.857 87.9975 193.857 90.3047L193.857 127.861C193.857 130.168 191.613 130.873 188.985 131.193L188.985 131.514L205.907 131.514L205.907 131.193C203.279 130.873 201.036 130.168 201.036 127.861L201.036 90.3047C201.036 87.9975 203.279 87.2925 205.907 86.972Z"/>
<path d="M185.143 86.6516L175.721 86.6516C177.643 87.9334 178.22 89.1511 178.22 92.6119L178.22 110.749C175.208 112.8 172.067 115.299 168.029 115.299C164.76 115.299 161.491 113.633 161.491 106.327L161.491 91.0737L161.875 86.6516L152.453 86.6516C154.376 87.9334 154.953 89.1511 154.953 92.6119L154.953 106.455C154.953 116.132 160.081 118.119 164.183 118.119C169.952 118.119 174.887 114.402 178.22 112.159L178.22 113.313L177.9 118.055L188.668 117.094L188.668 116.837C187.322 116.709 185.656 116.261 184.758 115.684L184.758 91.0737L185.143 86.6516Z"/>
<path d="M141.96 85.6262L140.614 85.6262L132.538 87.8052L132.538 88.0616L140.614 87.8052L140.614 116.197L133.179 116.197L132.858 117.735L140.614 117.735L140.614 126.066L140.101 128.822L152.729 122.99L152.729 122.605C148.498 123.823 147.152 124.079 147.152 121.388L147.152 91.0737L147.344 87.2284L141.96 85.6262Z"/>
<path d="M115.059 86.203C108.393 86.203 103.201 89.2152 101.278 92.8041L101.599 93.0605C103.586 90.3047 108.649 89.1511 111.918 89.1511C119.61 89.1511 124.674 95.624 124.738 104.468L106.855 104.468C103.586 104.468 101.855 106.711 101.855 109.403C101.855 113.313 105.637 118.119 113.649 118.119C123.007 118.119 131.596 111.839 131.596 101.52C131.596 92.0351 124.353 86.203 115.059 86.203ZM124.738 105.558C124.482 112.736 120.828 117.03 115.892 117.03C110.508 117.03 107.816 112.031 107.816 108.698C107.816 106.968 108.457 105.686 109.803 105.686L124.738 105.558Z"/>
<path d="M97.2225 86.6516L87.8643 86.6516C89.7872 87.9334 90.3641 89.1511 90.3641 92.6119L90.3641 105.686C89.7231 110.172 87.8002 114.21 84.6594 114.21C82.4801 114.21 81.0699 112.031 82.7365 107.865L82.4801 107.865L76.7113 117.286C77.9291 117.863 78.9547 118.055 80.1085 118.055C84.4671 118.055 88.0565 115.363 89.5308 111.262L90.3641 111.262L90.3641 113.313L90.0436 118.055L100.812 117.094L100.812 116.837C99.4659 116.709 97.7994 116.261 96.902 115.684L96.902 91.0737L97.2225 86.6516Z"/>
<path d="M72.8419 86.6516L63.4195 86.6516C65.3424 87.9334 65.9193 89.1511 65.9193 92.6119L65.9193 113.313L65.5988 118.055L76.3672 117.094L76.3672 116.837C75.0212 116.709 73.3547 116.261 72.4573 115.684L72.4573 91.0737L72.8419 86.6516ZM73.547 128.181C73.547 125.938 71.8163 124.208 69.5088 124.208C67.3295 124.208 65.5988 125.938 65.5988 128.181C65.5988 130.424 67.3295 132.155 69.5088 132.155C71.8163 132.155 73.547 130.424 73.547 128.181Z"/>
<path d="M44.0991 86.203C34.164 86.203 27.3696 92.7401 27.3696 102.161C27.3696 111.71 34.164 118.119 44.0991 118.119C53.9702 118.119 60.8286 111.582 60.8286 102.161C60.8286 92.676 53.9701 86.203 44.0991 86.203ZM54.2906 106.519C54.2906 113.056 51.5345 117.03 46.5989 117.03C38.7149 117.03 33.9076 106.583 33.9076 97.8031C33.9076 91.266 36.6638 87.2925 41.5993 87.2925C49.4833 87.2925 54.2906 97.8031 54.2906 106.519Z"/>
<path d="M22.5113 86.6516L13.153 86.6516C15.0759 87.9334 15.6528 89.1511 15.6528 92.6119L15.6528 105.686C15.0118 110.172 13.0889 114.21 9.94812 114.21C7.7688 114.21 6.35867 112.031 8.02521 107.865L7.7688 107.865L2 117.286C3.21785 117.863 4.24343 118.055 5.39718 118.055C9.75582 118.055 13.3453 115.363 14.8195 111.262L15.6528 111.262L15.6528 113.313L15.3323 118.055L26.1007 117.094L26.1007 116.837C24.7547 116.709 23.0881 116.261 22.1908 115.684L22.1908 91.0737L22.5113 86.6516Z"/>
<path d="M440.68 14.715L440.68 14.3945L421.835 14.3945C407.285 14.3945 395.939 22.7902 395.939 37.9792C395.939 51.4379 404.721 59.2567 420.553 59.2567L440.68 59.2567L440.68 58.9363C438.052 58.6158 435.808 57.9109 435.808 55.6037L435.808 19.3294C435.808 17.0222 438.051 15.6763 440.68 14.715ZM428.629 17.4067L428.629 58.2313L423.117 58.2313C409.336 58.2313 403.631 48.3616 403.631 34.5184C403.631 19.8421 410.041 15.484 419.784 15.484C423.373 15.484 426.193 16.2531 428.629 17.4067Z"/>
<path d="M375.561 13.9459C368.895 13.9459 363.703 16.9581 361.78 20.5471L362.1 20.8034C364.087 18.0476 369.151 16.894 372.42 16.894C380.112 16.894 385.175 23.367 385.24 32.2112L367.356 32.2112C364.087 32.2112 362.357 34.4543 362.357 37.1461C362.357 41.0555 366.138 45.8622 374.151 45.8622C383.509 45.8622 392.098 39.5814 392.098 29.2631C392.098 19.778 384.855 13.9459 375.561 13.9459ZM385.24 33.3007C384.983 40.4787 381.33 44.7726 376.394 44.7726C371.01 44.7727 368.318 39.7737 368.318 36.4411C368.318 34.7107 368.959 33.4289 370.305 33.4289L385.24 33.3007Z"/>
<path d="M346.65 13.9459C338.702 13.9459 333.767 18.1758 333.767 23.8797C333.767 27.8532 336.202 31.8908 345.24 33.3648C349.342 34.0698 353.509 35.4157 353.509 39.7737C353.509 42.0168 352.483 44.9008 348.253 44.9008C343.83 44.9008 338.318 41.6323 338.638 36.1847L338.51 36.1847L334.344 42.2091C336.843 44.2599 341.138 45.8622 345.945 45.8622C352.932 45.8622 358.316 42.5295 358.316 36.7615C358.316 33.3007 356.329 28.3659 346.522 26.8919C341.394 26.1228 338.382 24.3924 338.382 20.2907C338.382 17.2785 339.92 14.9713 344.215 14.9713C349.278 14.9713 355.303 18.304 355.239 23.8797L355.368 23.8797L359.085 17.7271C356.393 15.6122 351.65 13.9459 346.65 13.9459Z"/>
<path d="M328.649 14.3945L319.227 14.3945C321.149 15.6763 321.726 16.894 321.726 20.3548L321.726 41.0555L321.406 45.7981L332.174 44.8367L332.174 44.5804C330.828 44.4522 329.162 44.0036 328.264 43.4268L328.264 18.8167L328.649 14.3945ZM329.354 55.9241C329.354 53.681 327.623 51.9506 325.316 51.9506C323.137 51.9506 321.406 53.681 321.406 55.9241C321.406 58.1672 323.137 59.8976 325.316 59.8976C327.623 59.8976 329.354 58.1672 329.354 55.9241Z"/>
<path d="M303.752 0.999966C297.022 0.999967 285.484 7.92156 285.484 11.2542L285.484 43.4909C288.945 45.0931 292.599 45.8622 296.701 45.8622C310.098 45.8622 316.636 37.9151 316.636 28.6864C316.636 19.4576 310.226 13.9459 301.188 13.9459C297.342 13.9459 294.201 14.9713 292.022 16.6376L292.022 11.126C292.022 6.70387 294.971 3.17898 298.945 3.17898C300.868 3.17898 304.778 3.43533 307.406 8.88289L313.879 6.96022C311.316 2.28173 306.7 0.999966 303.752 0.999966ZM309.841 32.2112C309.841 39.7096 306.252 44.6445 299.778 44.6445C296.381 44.6445 293.945 43.2345 292.022 41.1196L292.022 18.2399C293.24 16.7017 294.842 15.8686 297.342 15.8686C304.457 15.8686 309.841 22.9824 309.841 32.2112Z"/>
<path d="M279.071 14.3945L269.649 14.3945C271.571 15.6763 272.148 16.894 272.148 20.3548L272.148 38.492C269.136 40.5428 265.995 43.0423 261.957 43.0423C258.688 43.0423 255.419 41.376 255.419 34.0698L255.419 18.8167L255.803 14.3945L246.381 14.3945C248.304 15.6763 248.881 16.894 248.881 20.3548L248.881 34.198C248.881 43.8754 254.009 45.8622 258.111 45.8622C263.88 45.8622 268.815 42.145 272.148 39.9019L272.148 41.0555L271.828 45.7981L282.596 44.8368L282.596 44.5804C281.25 44.4522 279.584 44.0036 278.686 43.4268L278.686 18.8167L279.071 14.3945Z"/>
<path d="M214.674 13.4973C203.393 13.4973 197.304 19.6498 197.304 27.0201C197.304 31.5704 199.611 37.4665 211.982 40.3505C218.712 41.8887 224.802 44.0036 224.802 51.1175C224.802 55.2832 222.815 59.1286 216.725 59.1286C209.547 59.1286 202.816 53.8733 203.842 45.2213L198.073 54.3219C201.47 57.5904 206.47 60.154 213.777 60.154C223.904 60.154 230.314 55.2832 230.314 47.7208C230.314 42.4655 227.237 36.3129 214.995 33.4289C207.367 31.6344 202.688 29.904 202.688 23.6874C202.688 19.7139 204.547 14.6509 211.918 14.6509C219.482 14.6509 226.853 19.8421 225.891 28.5582L231.596 19.5216C228.135 16.189 222.238 13.4973 214.674 13.4973Z"/>
<path d="M185.559 13.3691L184.213 13.3691L176.137 15.5481L176.137 15.8045L184.213 15.5481L184.213 43.9395L176.778 43.9395L176.457 45.4776L184.213 45.4776L184.213 53.8092L183.7 56.565L196.327 50.7329L196.327 50.3484C192.097 51.5661 190.751 51.8224 190.751 49.1307L190.751 18.8167L190.943 14.9713L185.559 13.3691Z"/>
<path d="M162.422 13.9459C156.397 13.9459 151.397 17.599 148.128 20.0985L148.128 14.0741L138.001 15.0354L138.001 15.2918C139.027 15.42 140.693 15.8686 141.591 16.4454L141.591 41.0555L141.206 45.4776L151.59 45.4776L151.59 45.3495C148.705 44.0677 148.129 42.85 148.129 39.3892L148.128 21.5084C151.077 19.2012 154.282 16.7658 158.576 16.7658C161.525 16.7658 164.858 18.4962 164.858 25.7383L164.858 41.0555L164.473 45.4776L174.857 45.4776L174.857 45.3495C171.973 44.0677 171.396 42.85 171.396 39.3892L171.396 25.6101C171.396 15.9327 166.268 13.9459 162.422 13.9459Z"/>
<path d="M111.74 56.6291L111.74 45.4776C113.214 45.734 114.817 45.8622 116.419 45.8622C129.816 45.8622 136.354 37.9152 136.354 28.6864C136.354 19.4576 129.944 13.9459 120.906 13.9459C117.893 13.9459 115.33 14.5868 113.278 15.6763L113.343 15.6122L102.702 13.6255L102.702 13.8177C104.625 15.0995 105.202 16.189 105.202 19.6498L105.202 61.1794L104.882 63.743L117.06 58.0391L117.06 57.6545C113.086 58.8722 111.74 59.1927 111.74 56.6291ZM129.559 32.2113C129.559 39.7097 125.97 44.6445 119.496 44.6445C116.099 44.6445 113.663 43.2345 111.74 41.1196L111.74 20.483C111.74 19.4576 111.804 18.6885 111.868 18.0476C113.15 16.6377 114.689 15.8045 117.06 15.8045C124.175 15.8045 129.559 22.9825 129.559 32.2113Z"/>
<path d="M97.5996 14.3945L88.1772 14.3945C90.1002 15.6763 90.6771 16.894 90.6771 20.3548L90.6771 41.0555L90.3566 45.7981L101.125 44.8368L101.125 44.5804C99.7789 44.4522 98.1124 44.0036 97.215 43.4268L97.215 18.8167L97.5996 14.3945ZM98.3047 55.9241C98.3047 53.681 96.574 51.9506 94.2665 51.9506C92.0872 51.9506 90.3566 53.681 90.3566 55.9241C90.3566 58.1673 92.0872 59.8976 94.2665 59.8976C96.574 59.8976 98.3047 58.1673 98.3047 55.9241Z"/>
<path d="M68.8568 13.9459C58.9217 13.9459 52.1273 20.483 52.1273 29.9041C52.1273 39.4533 58.9217 45.8622 68.8568 45.8622C78.7278 45.8622 85.5863 39.3251 85.5863 29.9041C85.5863 20.4189 78.7278 13.9459 68.8568 13.9459ZM79.0483 34.2621C79.0483 40.7992 76.2921 44.7727 71.3566 44.7727C63.4726 44.7727 58.6652 34.3262 58.6652 25.546C58.6652 19.009 61.4215 15.0354 66.357 15.0354C74.241 15.0354 79.0483 25.546 79.0483 34.2621Z"/>
</mask>
<path d="M416.194 85.9466L398.311 128.181L398.311 90.3046C398.311 87.9974 400.554 87.2925 403.182 86.972L403.182 86.6516L386.261 86.6516L386.261 86.972C388.889 87.2925 391.132 87.9974 391.132 90.3046L391.132 127.861C391.132 130.168 388.889 130.873 386.261 131.193L386.261 131.514L398.311 131.514L413.374 95.9445L431.193 131.514L441 131.514C438.244 129.463 437.026 127.54 435.808 125.105L435.808 96.7135C435.808 87.9974 438.052 87.2925 440.68 86.972L440.68 86.6516L429.655 86.6516L429.655 86.972C432.283 87.2925 434.526 89.2792 434.526 97.9953L434.526 122.541L416.194 85.9466Z" stroke="white" stroke-width="2" mask="url(#path-1-outside-1_718_771)"/>
<path d="M368.233 86.203C358.298 86.203 351.503 92.74 351.503 102.161C351.503 111.71 358.298 118.119 368.233 118.119C378.104 118.119 384.962 111.582 384.962 102.161C384.962 92.6759 378.104 86.203 368.233 86.203ZM378.424 106.519C378.424 113.056 375.668 117.03 370.732 117.03C362.848 117.03 358.041 106.583 358.041 97.803C358.041 91.266 360.797 87.2925 365.733 87.2925C373.617 87.2925 378.424 97.803 378.424 106.519Z" stroke="white" stroke-width="2" mask="url(#path-1-outside-1_718_771)"/>
<path d="M323.072 128.886L323.072 117.735C324.546 117.991 326.149 118.119 327.751 118.119C341.147 118.119 347.685 110.172 347.685 100.943C347.685 91.7146 341.276 86.203 332.238 86.203C329.225 86.203 326.661 86.8438 324.61 87.9334L324.674 87.8693L314.034 85.8825L314.034 86.0748C315.957 87.3566 316.534 88.4461 316.534 91.9069L316.534 133.436L316.213 136L328.392 130.296L328.392 129.912C324.418 131.129 323.072 131.45 323.072 128.886ZM340.891 104.468C340.891 111.967 337.302 116.902 330.828 116.902C327.431 116.902 324.995 115.492 323.072 113.377L323.072 92.74C323.072 91.7146 323.136 90.9455 323.2 90.3046C324.482 88.8947 326.02 88.0615 328.392 88.0615C335.507 88.0615 340.891 95.2395 340.891 104.468Z" stroke="white" stroke-width="2" mask="url(#path-1-outside-1_718_771)"/>
<path d="M293.997 86.203C287.33 86.203 282.139 89.2151 280.216 92.8041L280.536 93.0605C282.523 90.3047 287.587 89.1511 290.856 89.1511C298.548 89.1511 303.611 95.624 303.675 104.468L285.792 104.468C282.523 104.468 280.793 106.711 280.793 109.403C280.793 113.313 284.574 118.119 292.587 118.119C301.945 118.119 310.534 111.839 310.534 101.52C310.534 92.0351 303.291 86.203 293.997 86.203ZM303.675 105.558C303.419 112.736 299.765 117.03 294.83 117.03C289.446 117.03 286.754 112.031 286.754 108.698C286.754 106.968 287.395 105.686 288.741 105.686L303.675 105.558Z" stroke="white" stroke-width="2" mask="url(#path-1-outside-1_718_771)"/>
<path d="M276.16 86.6516L266.802 86.6516C268.725 87.9334 269.302 89.1511 269.302 92.6119L269.302 105.686C268.661 110.172 266.738 114.21 263.597 114.21C261.418 114.21 260.007 112.031 261.674 107.865L261.418 107.865L255.649 117.286C256.867 117.863 257.892 118.055 259.046 118.055C263.405 118.055 266.994 115.363 268.468 111.262L269.302 111.262L269.302 113.313L268.981 118.055L279.749 117.094L279.749 116.837C278.403 116.709 276.737 116.261 275.839 115.684L275.839 91.0737L276.16 86.6516Z" stroke="white" stroke-width="2" mask="url(#path-1-outside-1_718_771)"/>
<path d="M251.779 86.6516L242.357 86.6516C244.28 87.9334 244.857 89.1511 244.857 92.6119L244.857 110.749C241.844 112.8 238.703 115.299 234.665 115.299C231.396 115.299 228.127 113.633 228.127 106.327L228.127 91.0737L228.512 86.6516L219.09 86.6516C221.013 87.9334 221.589 89.1511 221.589 92.6119L221.589 106.455C221.589 116.132 226.717 118.119 230.819 118.119C236.588 118.119 241.524 114.402 244.857 112.159L244.857 113.313L244.536 118.055L255.305 117.094L255.305 116.837C253.959 116.709 252.292 116.261 251.395 115.684L251.395 91.0737L251.779 86.6516Z" stroke="white" stroke-width="2" mask="url(#path-1-outside-1_718_771)"/>
<path d="M205.907 86.972L205.907 86.6516L188.985 86.6516L188.985 86.972C191.613 87.2925 193.857 87.9975 193.857 90.3047L193.857 127.861C193.857 130.168 191.613 130.873 188.985 131.193L188.985 131.514L205.907 131.514L205.907 131.193C203.279 130.873 201.036 130.168 201.036 127.861L201.036 90.3047C201.036 87.9975 203.279 87.2925 205.907 86.972Z" stroke="white" stroke-width="2" mask="url(#path-1-outside-1_718_771)"/>
<path d="M185.143 86.6516L175.721 86.6516C177.643 87.9334 178.22 89.1511 178.22 92.6119L178.22 110.749C175.208 112.8 172.067 115.299 168.029 115.299C164.76 115.299 161.491 113.633 161.491 106.327L161.491 91.0737L161.875 86.6516L152.453 86.6516C154.376 87.9334 154.953 89.1511 154.953 92.6119L154.953 106.455C154.953 116.132 160.081 118.119 164.183 118.119C169.952 118.119 174.887 114.402 178.22 112.159L178.22 113.313L177.9 118.055L188.668 117.094L188.668 116.837C187.322 116.709 185.656 116.261 184.758 115.684L184.758 91.0737L185.143 86.6516Z" stroke="white" stroke-width="2" mask="url(#path-1-outside-1_718_771)"/>
<path d="M141.96 85.6262L140.614 85.6262L132.538 87.8052L132.538 88.0616L140.614 87.8052L140.614 116.197L133.179 116.197L132.858 117.735L140.614 117.735L140.614 126.066L140.101 128.822L152.729 122.99L152.729 122.605C148.498 123.823 147.152 124.079 147.152 121.388L147.152 91.0737L147.344 87.2284L141.96 85.6262Z" stroke="white" stroke-width="2" mask="url(#path-1-outside-1_718_771)"/>
<path d="M115.059 86.203C108.393 86.203 103.201 89.2152 101.278 92.8041L101.599 93.0605C103.586 90.3047 108.649 89.1511 111.918 89.1511C119.61 89.1511 124.674 95.624 124.738 104.468L106.855 104.468C103.586 104.468 101.855 106.711 101.855 109.403C101.855 113.313 105.637 118.119 113.649 118.119C123.007 118.119 131.596 111.839 131.596 101.52C131.596 92.0351 124.353 86.203 115.059 86.203ZM124.738 105.558C124.482 112.736 120.828 117.03 115.892 117.03C110.508 117.03 107.816 112.031 107.816 108.698C107.816 106.968 108.457 105.686 109.803 105.686L124.738 105.558Z" stroke="white" stroke-width="2" mask="url(#path-1-outside-1_718_771)"/>
<path d="M97.2225 86.6516L87.8643 86.6516C89.7872 87.9334 90.3641 89.1511 90.3641 92.6119L90.3641 105.686C89.7231 110.172 87.8002 114.21 84.6594 114.21C82.4801 114.21 81.0699 112.031 82.7365 107.865L82.4801 107.865L76.7113 117.286C77.9291 117.863 78.9547 118.055 80.1085 118.055C84.4671 118.055 88.0565 115.363 89.5308 111.262L90.3641 111.262L90.3641 113.313L90.0436 118.055L100.812 117.094L100.812 116.837C99.4659 116.709 97.7994 116.261 96.902 115.684L96.902 91.0737L97.2225 86.6516Z" stroke="white" stroke-width="2" mask="url(#path-1-outside-1_718_771)"/>
<path d="M72.8419 86.6516L63.4195 86.6516C65.3424 87.9334 65.9193 89.1511 65.9193 92.6119L65.9193 113.313L65.5988 118.055L76.3672 117.094L76.3672 116.837C75.0212 116.709 73.3547 116.261 72.4573 115.684L72.4573 91.0737L72.8419 86.6516ZM73.547 128.181C73.547 125.938 71.8163 124.208 69.5088 124.208C67.3295 124.208 65.5988 125.938 65.5988 128.181C65.5988 130.424 67.3295 132.155 69.5088 132.155C71.8163 132.155 73.547 130.424 73.547 128.181Z" stroke="white" stroke-width="2" mask="url(#path-1-outside-1_718_771)"/>
<path d="M44.0991 86.203C34.164 86.203 27.3696 92.7401 27.3696 102.161C27.3696 111.71 34.164 118.119 44.0991 118.119C53.9702 118.119 60.8286 111.582 60.8286 102.161C60.8286 92.676 53.9701 86.203 44.0991 86.203ZM54.2906 106.519C54.2906 113.056 51.5345 117.03 46.5989 117.03C38.7149 117.03 33.9076 106.583 33.9076 97.8031C33.9076 91.266 36.6638 87.2925 41.5993 87.2925C49.4833 87.2925 54.2906 97.8031 54.2906 106.519Z" stroke="white" stroke-width="2" mask="url(#path-1-outside-1_718_771)"/>
<path d="M22.5113 86.6516L13.153 86.6516C15.0759 87.9334 15.6528 89.1511 15.6528 92.6119L15.6528 105.686C15.0118 110.172 13.0889 114.21 9.94812 114.21C7.7688 114.21 6.35867 112.031 8.02521 107.865L7.7688 107.865L2 117.286C3.21785 117.863 4.24343 118.055 5.39718 118.055C9.75582 118.055 13.3453 115.363 14.8195 111.262L15.6528 111.262L15.6528 113.313L15.3323 118.055L26.1007 117.094L26.1007 116.837C24.7547 116.709 23.0881 116.261 22.1908 115.684L22.1908 91.0737L22.5113 86.6516Z" stroke="white" stroke-width="2" mask="url(#path-1-outside-1_718_771)"/>
<path d="M440.68 14.715L440.68 14.3945L421.835 14.3945C407.285 14.3945 395.939 22.7902 395.939 37.9792C395.939 51.4379 404.721 59.2567 420.553 59.2567L440.68 59.2567L440.68 58.9363C438.052 58.6158 435.808 57.9109 435.808 55.6037L435.808 19.3294C435.808 17.0222 438.051 15.6763 440.68 14.715ZM428.629 17.4067L428.629 58.2313L423.117 58.2313C409.336 58.2313 403.631 48.3616 403.631 34.5184C403.631 19.8421 410.041 15.484 419.784 15.484C423.373 15.484 426.193 16.2531 428.629 17.4067Z" stroke="white" stroke-width="2" mask="url(#path-1-outside-1_718_771)"/>
<path d="M375.561 13.9459C368.895 13.9459 363.703 16.9581 361.78 20.5471L362.1 20.8034C364.087 18.0476 369.151 16.894 372.42 16.894C380.112 16.894 385.175 23.367 385.24 32.2112L367.356 32.2112C364.087 32.2112 362.357 34.4543 362.357 37.1461C362.357 41.0555 366.138 45.8622 374.151 45.8622C383.509 45.8622 392.098 39.5814 392.098 29.2631C392.098 19.778 384.855 13.9459 375.561 13.9459ZM385.24 33.3007C384.983 40.4787 381.33 44.7726 376.394 44.7726C371.01 44.7727 368.318 39.7737 368.318 36.4411C368.318 34.7107 368.959 33.4289 370.305 33.4289L385.24 33.3007Z" stroke="white" stroke-width="2" mask="url(#path-1-outside-1_718_771)"/>
<path d="M346.65 13.9459C338.702 13.9459 333.767 18.1758 333.767 23.8797C333.767 27.8532 336.202 31.8908 345.24 33.3648C349.342 34.0698 353.509 35.4157 353.509 39.7737C353.509 42.0168 352.483 44.9008 348.253 44.9008C343.83 44.9008 338.318 41.6323 338.638 36.1847L338.51 36.1847L334.344 42.2091C336.843 44.2599 341.138 45.8622 345.945 45.8622C352.932 45.8622 358.316 42.5295 358.316 36.7615C358.316 33.3007 356.329 28.3659 346.522 26.8919C341.394 26.1228 338.382 24.3924 338.382 20.2907C338.382 17.2785 339.92 14.9713 344.215 14.9713C349.278 14.9713 355.303 18.304 355.239 23.8797L355.368 23.8797L359.085 17.7271C356.393 15.6122 351.65 13.9459 346.65 13.9459Z" stroke="white" stroke-width="2" mask="url(#path-1-outside-1_718_771)"/>
<path d="M328.649 14.3945L319.227 14.3945C321.149 15.6763 321.726 16.894 321.726 20.3548L321.726 41.0555L321.406 45.7981L332.174 44.8367L332.174 44.5804C330.828 44.4522 329.162 44.0036 328.264 43.4268L328.264 18.8167L328.649 14.3945ZM329.354 55.9241C329.354 53.681 327.623 51.9506 325.316 51.9506C323.137 51.9506 321.406 53.681 321.406 55.9241C321.406 58.1672 323.137 59.8976 325.316 59.8976C327.623 59.8976 329.354 58.1672 329.354 55.9241Z" stroke="white" stroke-width="2" mask="url(#path-1-outside-1_718_771)"/>
<path d="M303.752 0.999966C297.022 0.999967 285.484 7.92156 285.484 11.2542L285.484 43.4909C288.945 45.0931 292.599 45.8622 296.701 45.8622C310.098 45.8622 316.636 37.9151 316.636 28.6864C316.636 19.4576 310.226 13.9459 301.188 13.9459C297.342 13.9459 294.201 14.9713 292.022 16.6376L292.022 11.126C292.022 6.70387 294.971 3.17898 298.945 3.17898C300.868 3.17898 304.778 3.43533 307.406 8.88289L313.879 6.96022C311.316 2.28173 306.7 0.999966 303.752 0.999966ZM309.841 32.2112C309.841 39.7096 306.252 44.6445 299.778 44.6445C296.381 44.6445 293.945 43.2345 292.022 41.1196L292.022 18.2399C293.24 16.7017 294.842 15.8686 297.342 15.8686C304.457 15.8686 309.841 22.9824 309.841 32.2112Z" stroke="white" stroke-width="2" mask="url(#path-1-outside-1_718_771)"/>
<path d="M279.071 14.3945L269.649 14.3945C271.571 15.6763 272.148 16.894 272.148 20.3548L272.148 38.492C269.136 40.5428 265.995 43.0423 261.957 43.0423C258.688 43.0423 255.419 41.376 255.419 34.0698L255.419 18.8167L255.803 14.3945L246.381 14.3945C248.304 15.6763 248.881 16.894 248.881 20.3548L248.881 34.198C248.881 43.8754 254.009 45.8622 258.111 45.8622C263.88 45.8622 268.815 42.145 272.148 39.9019L272.148 41.0555L271.828 45.7981L282.596 44.8368L282.596 44.5804C281.25 44.4522 279.584 44.0036 278.686 43.4268L278.686 18.8167L279.071 14.3945Z" stroke="white" stroke-width="2" mask="url(#path-1-outside-1_718_771)"/>
<path d="M214.674 13.4973C203.393 13.4973 197.304 19.6498 197.304 27.0201C197.304 31.5704 199.611 37.4665 211.982 40.3505C218.712 41.8887 224.802 44.0036 224.802 51.1175C224.802 55.2832 222.815 59.1286 216.725 59.1286C209.547 59.1286 202.816 53.8733 203.842 45.2213L198.073 54.3219C201.47 57.5904 206.47 60.154 213.777 60.154C223.904 60.154 230.314 55.2832 230.314 47.7208C230.314 42.4655 227.237 36.3129 214.995 33.4289C207.367 31.6344 202.688 29.904 202.688 23.6874C202.688 19.7139 204.547 14.6509 211.918 14.6509C219.482 14.6509 226.853 19.8421 225.891 28.5582L231.596 19.5216C228.135 16.189 222.238 13.4973 214.674 13.4973Z" stroke="white" stroke-width="2" mask="url(#path-1-outside-1_718_771)"/>
<path d="M185.559 13.3691L184.213 13.3691L176.137 15.5481L176.137 15.8045L184.213 15.5481L184.213 43.9395L176.778 43.9395L176.457 45.4776L184.213 45.4776L184.213 53.8092L183.7 56.565L196.327 50.7329L196.327 50.3484C192.097 51.5661 190.751 51.8224 190.751 49.1307L190.751 18.8167L190.943 14.9713L185.559 13.3691Z" stroke="white" stroke-width="2" mask="url(#path-1-outside-1_718_771)"/>
<path d="M162.422 13.9459C156.397 13.9459 151.397 17.599 148.128 20.0985L148.128 14.0741L138.001 15.0354L138.001 15.2918C139.027 15.42 140.693 15.8686 141.591 16.4454L141.591 41.0555L141.206 45.4776L151.59 45.4776L151.59 45.3495C148.705 44.0677 148.129 42.85 148.129 39.3892L148.128 21.5084C151.077 19.2012 154.282 16.7658 158.576 16.7658C161.525 16.7658 164.858 18.4962 164.858 25.7383L164.858 41.0555L164.473 45.4776L174.857 45.4776L174.857 45.3495C171.973 44.0677 171.396 42.85 171.396 39.3892L171.396 25.6101C171.396 15.9327 166.268 13.9459 162.422 13.9459Z" stroke="white" stroke-width="2" mask="url(#path-1-outside-1_718_771)"/>
<path d="M111.74 56.6291L111.74 45.4776C113.214 45.734 114.817 45.8622 116.419 45.8622C129.816 45.8622 136.354 37.9152 136.354 28.6864C136.354 19.4576 129.944 13.9459 120.906 13.9459C117.893 13.9459 115.33 14.5868 113.278 15.6763L113.343 15.6122L102.702 13.6255L102.702 13.8177C104.625 15.0995 105.202 16.189 105.202 19.6498L105.202 61.1794L104.882 63.743L117.06 58.0391L117.06 57.6545C113.086 58.8722 111.74 59.1927 111.74 56.6291ZM129.559 32.2113C129.559 39.7097 125.97 44.6445 119.496 44.6445C116.099 44.6445 113.663 43.2345 111.74 41.1196L111.74 20.483C111.74 19.4576 111.804 18.6885 111.868 18.0476C113.15 16.6377 114.689 15.8045 117.06 15.8045C124.175 15.8045 129.559 22.9825 129.559 32.2113Z" stroke="white" stroke-width="2" mask="url(#path-1-outside-1_718_771)"/>
<path d="M97.5996 14.3945L88.1772 14.3945C90.1002 15.6763 90.6771 16.894 90.6771 20.3548L90.6771 41.0555L90.3566 45.7981L101.125 44.8368L101.125 44.5804C99.7789 44.4522 98.1124 44.0036 97.215 43.4268L97.215 18.8167L97.5996 14.3945ZM98.3047 55.9241C98.3047 53.681 96.574 51.9506 94.2665 51.9506C92.0872 51.9506 90.3566 53.681 90.3566 55.9241C90.3566 58.1673 92.0872 59.8976 94.2665 59.8976C96.574 59.8976 98.3047 58.1673 98.3047 55.9241Z" stroke="white" stroke-width="2" mask="url(#path-1-outside-1_718_771)"/>
<path d="M68.8568 13.9459C58.9217 13.9459 52.1273 20.483 52.1273 29.9041C52.1273 39.4533 58.9217 45.8622 68.8568 45.8622C78.7278 45.8622 85.5863 39.3251 85.5863 29.9041C85.5863 20.4189 78.7278 13.9459 68.8568 13.9459ZM79.0483 34.2621C79.0483 40.7992 76.2921 44.7727 71.3566 44.7727C63.4726 44.7727 58.6652 34.3262 58.6652 25.546C58.6652 19.009 61.4215 15.0354 66.357 15.0354C74.241 15.0354 79.0483 25.546 79.0483 34.2621Z" stroke="white" stroke-width="2" mask="url(#path-1-outside-1_718_771)"/>
</svg>
